<?xml version="1.0" encoding="utf-8"?>
<!-- Generator: Adobe Illustrator 23.1.0, SVG Export Plug-In . SVG Version: 6.00 Build 0)  -->
<svg version="1.1" id="Layer_1" xmlns="http://www.w3.org/2000/svg" xmlns:xlink="http://www.w3.org/1999/xlink" x="0px" y="0px"
	 viewBox="0 0 63.9 30.2" style="enable-background:new 0 0 63.9 30.2;" xml:space="preserve">
<style type="text/css">
	.st0{fill:#CE1E4E;}
</style>
<g>
	<path d="M15.8,3.8c2.1,0,3.7-0.1,4.9-0.2c1.2-0.1,2.1-0.2,2.8-0.4c0.7-0.2,1.1-0.3,1.3-0.5c0.2-0.2,0.4-0.4,0.5-0.6
		c0-0.1,0.1-0.2,0.3-0.2c0.2,0,0.3,0.1,0.3,0.2c0,0-0.1,0.2-0.2,0.5c-0.1,0.3-0.2,0.6-0.3,1c-0.1,0.4-0.3,0.8-0.4,1.2
		c-0.1,0.4-0.3,0.8-0.4,1.2s-0.2,0.7-0.3,1c-0.1,0.3-0.1,0.5-0.1,0.6c0,0-0.1,0-0.2,0c-0.1,0-0.1,0-0.2,0c-0.2,0-0.3-0.1-0.3-0.2
		c0-0.1,0-0.2,0-0.4c0-0.1,0-0.3,0-0.4c0-0.1,0-0.2,0-0.2c-0.1-0.2-0.4-0.4-1-0.5c-0.6-0.1-1.2-0.2-2-0.2c-0.8,0-1.5-0.1-2.3-0.1
		c-0.8,0-1.4,0-1.9,0c-0.8,0-1.5,0.2-2.3,0.6c-0.8,0.4-1.4,1.1-2,1.9c-0.6,0.8-1.1,1.8-1.4,3c-0.4,1.2-0.6,2.5-0.6,4
		c0,1.3,0.1,2.5,0.4,3.6c0.3,1.1,0.7,2.1,1.3,2.9c0.5,0.8,1.2,1.5,2,1.9c0.8,0.5,1.7,0.7,2.7,0.7c0.9,0,1.8-0.2,2.5-0.5
		c0.7-0.4,1.3-0.8,1.8-1.4c0.5-0.6,0.8-1.2,1.1-1.9c0.3-0.7,0.4-1.5,0.4-2.2c0-0.5-0.1-1.1-0.2-1.6c-0.1-0.5-0.3-1-0.6-1.3
		c-0.3-0.4-0.6-0.7-1-0.9c-0.4-0.2-0.9-0.3-1.4-0.3c-0.8,0-1.4,0.2-1.8,0.6c-0.3,0.4-0.5,0.8-0.5,1.2c0,0.4,0.1,0.7,0.3,1
		c0.2,0.3,0.5,0.4,0.9,0.4c0.2,0,0.3,0.1,0.3,0.2c0,0.1,0,0.1-0.1,0.2c-0.1,0.1-0.4,0.3-0.8,0.4c-0.5,0.1-1,0.2-1.7,0.2
		c-0.8,0-1.4-0.2-1.9-0.6c-0.5-0.4-0.8-0.9-0.8-1.5c0-0.4,0.2-0.8,0.5-1.1c0.4-0.4,0.9-0.7,1.5-1c0.6-0.3,1.4-0.5,2.3-0.7
		c0.9-0.2,1.8-0.3,2.9-0.3c0.9,0,1.7,0.1,2.5,0.3c0.8,0.2,1.4,0.4,2,0.8c0.6,0.3,1,0.7,1.3,1.2c0.3,0.5,0.5,1,0.5,1.6
		c0,0.9-0.3,1.8-0.8,2.8c-0.6,1-1.3,1.9-2.3,2.7c-1,0.8-2.1,1.5-3.5,2.1c-1.3,0.5-2.8,0.8-4.3,0.8c-1.6,0-3-0.2-4.2-0.7
		C9.9,24.4,8.9,23.8,8,23c-0.8-0.8-1.5-1.8-1.9-2.9c-0.4-1.1-0.7-2.3-0.7-3.7c0-1,0.2-2,0.5-2.8c0.3-0.9,0.7-1.7,1.2-2.5
		c0.5-0.8,1-1.5,1.6-2.1c0.6-0.6,1.2-1.2,1.7-1.6c0.6-0.5,1.1-0.8,1.5-1.1c0.5-0.3,0.8-0.4,1-0.5c-0.7,0-1.4,0.1-2.2,0.1
		C10,6,9.2,6,8.5,6.1C7.8,6.2,7.2,6.3,6.7,6.4C6.1,6.5,5.7,6.6,5.5,6.8C5.3,6.9,5.1,7.1,5,7.4C4.9,7.7,4.7,7.9,4.6,8.2
		c-0.2,0-0.3,0-0.4-0.1C4.1,8.1,4.1,8,4,7.8c0.2-0.2,0.4-0.6,0.6-1.1C4.8,6.1,5,5.6,5.2,5c0.2-0.6,0.4-1.1,0.5-1.6
		C5.9,2.9,6,2.6,6.1,2.5c0.1,0,0.2-0.1,0.3-0.1c0.1,0,0.2,0,0.2,0.1C6.5,2.7,6.5,2.9,6.5,3.1c0,0.2,0.1,0.3,0.3,0.4
		C7.4,3.6,8.1,3.7,9,3.8c0.9,0.1,1.9,0.1,3,0.1H15.8z"/>
	<path class="st0" d="M45.1,24.4c0.6,0,0.8,0.2,0.8,0.5c0,0.3-0.2,0.4-0.7,0.4c-0.1,0-0.4,0-0.7,0c-0.3,0-0.7,0-1.1-0.1
		c-0.4,0-0.8,0-1.2-0.1c-0.4,0-0.7,0-1,0c-1.3,0-2.4,0-3.2,0.1c-0.9,0.1-1.6,0.2-2.1,0.3c-0.5,0.1-1,0.2-1.3,0.2
		c-0.3,0.1-0.6,0.1-0.8,0.1c-0.1,0-0.1,0-0.2-0.1c-0.1-0.1-0.2-0.1-0.2-0.2c0-0.1,0-0.3,0-0.5c0-0.2,0.1-0.3,0.3-0.3
		c0.2,0,0.5,0,0.9,0c0.4,0,0.8-0.1,1.2-0.1c0.4-0.1,0.8-0.1,1.1-0.2c0.3-0.1,0.6-0.2,0.7-0.4c0.1-0.2,0.1-0.6,0.2-1.2
		c0.1-0.6,0.1-1.4,0.2-2.4c0.1-1,0.1-2.1,0.2-3.3c0-1.3,0.1-2.6,0.1-4.1c0-1.4,0-2.6,0-3.6s0-1.8,0-2.5c0-0.7-0.1-1.2-0.1-1.5
		C38.1,5,38,4.7,37.9,4.6c-0.9-0.1-1.6-0.2-2.1-0.3C35.3,4.2,35,4.1,35,3.9c-0.1-0.1-0.1-0.1-0.1-0.2c0-0.2,0.2-0.3,0.7-0.3
		c0.2,0,0.8,0,1.7,0.1c0.9,0.1,1.9,0.1,3.1,0.1c0.9,0,1.6,0,2.2,0c0.6,0,1-0.1,1.4-0.1c0.4,0,0.6-0.1,0.8-0.1c0.2,0,0.4-0.1,0.6-0.1
		c0.3,0,0.4,0.1,0.4,0.4c0,0.2-0.1,0.3-0.3,0.4c-0.2,0.1-0.4,0.2-0.6,0.2c-0.3,0-0.5,0.1-0.8,0.1c-0.3,0-0.6,0-0.8,0.1
		c-0.2,0-0.3,0-0.5,0.1c-0.2,0-0.3,0.1-0.4,0.1c-0.1,0-0.2,0.4-0.3,1.1C42.1,6.3,42,7.2,42,8.2c-0.1,1-0.1,2.1-0.1,3.2s0,2.2,0,3.2
		c0.9-0.5,1.9-1.1,2.7-1.8c0.9-0.7,1.8-1.6,2.7-2.6c0.3-0.4,0.7-0.8,1.1-1.2c0.4-0.4,0.7-0.8,1-1.3c0.3-0.5,0.6-0.9,0.8-1.4
		c0.2-0.5,0.3-1,0.3-1.4c0-0.1,0-0.3-0.1-0.4c-0.2,0-0.5,0-0.8,0c-0.3,0-0.5,0.1-0.7,0.1c-0.2,0.1-0.4,0.1-0.6,0.1
		c-0.2,0-0.3,0-0.3,0c-0.3,0-0.5-0.2-0.5-0.5c0-0.2,0.1-0.4,0.2-0.6c0.1-0.2,0.3-0.3,0.5-0.3c0.2,0,0.6,0,1.1,0
		c0.5,0.1,1.3,0.1,2.1,0.1h2.6c0.2,0,0.4,0,0.6,0c0.2,0,0.4,0,0.5,0c0.2,0,0.4,0,0.5,0c0.3,0,0.5,0.1,0.5,0.3c0,0.1,0,0.1,0,0.1
		c-0.3,0.3-0.6,0.7-1.2,1.2c-0.5,0.5-1.1,1-1.7,1.6c-0.6,0.6-1.3,1.2-2.1,1.8c-0.7,0.6-1.4,1.2-2.1,1.8c-0.7,0.6-1.3,1.1-1.9,1.6
		c-0.6,0.5-1.1,0.9-1.4,1.2c0.5-0.1,0.9-0.2,1.2-0.2c1,0,1.9,0.2,2.7,0.6c0.8,0.4,1.4,0.9,2,1.5c0.5,0.6,1,1.3,1.2,2.1
		c0.3,0.8,0.4,1.6,0.4,2.4c0,0.2,0,0.4,0,0.6c0,0.2-0.1,0.4-0.2,0.5c0.3,0.6,0.6,1.4,1,2.2c0.4,0.8,0.8,1.6,1.2,2.3
		c0.5,0.7,1,1.3,1.6,1.9c0.6,0.5,1.3,0.8,2.1,0.9c0.2,0,0.5-0.1,0.8-0.2c0.3-0.1,0.6-0.2,0.8-0.3c0.1,0,0.1,0.1,0.2,0.2
		c0.1,0.1,0.1,0.2,0.1,0.3c0,0.3-0.1,0.6-0.4,0.8c-0.3,0.2-0.5,0.3-0.8,0.3c-0.5,0-1.2-0.1-1.9-0.4c-0.7-0.3-1.4-0.7-2.2-1.1
		c-0.7-0.5-1.4-1.1-2.1-1.8c-0.7-0.7-1.2-1.4-1.7-2.2c-0.1-0.1-0.2-0.4-0.4-0.9c-0.2-0.4-0.5-1-0.8-1.6c-0.3-0.6-0.7-1.2-1.1-1.9
		c-0.4-0.7-0.9-1.3-1.4-1.9c-0.5-0.6-1.1-1.1-1.7-1.6c-0.6-0.5-1.2-0.7-1.9-0.9c-0.4,0-0.8,0.2-1.2,0.5c-0.4,0.3-0.8,0.7-1.2,1.1
		v1.3c0,0.7,0,1.4,0,2.1c0,0.7,0,1.4,0.1,1.9c0,0.6,0.1,1.1,0.1,1.5c0.1,0.4,0.1,0.7,0.2,0.8c0.2,0.2,0.5,0.3,1,0.4
		c0.5,0.1,0.9,0.1,1.4,0.1H45.1z"/>
</g>
</svg>
