<?xml version="1.0" encoding="utf-8"?>
<!-- Generator: Adobe Illustrator 23.1.0, SVG Export Plug-In . SVG Version: 6.00 Build 0)  -->
<svg version="1.1" id="Layer_1" xmlns="http://www.w3.org/2000/svg" xmlns:xlink="http://www.w3.org/1999/xlink" x="0px" y="0px"
	 viewBox="0 0 65 65" style="enable-background:new 0 0 65 65;" xml:space="preserve">
<style type="text/css">
	.st0{fill:#CE1E4E;}
</style>
<g>
	<path d="M16.3,21.2c2.1,0,3.7-0.1,4.9-0.2s2.1-0.2,2.8-0.4c0.7-0.2,1.1-0.3,1.3-0.5c0.2-0.2,0.4-0.4,0.5-0.6c0-0.1,0.1-0.2,0.3-0.2
		c0.2,0,0.3,0.1,0.3,0.2c0,0-0.1,0.2-0.2,0.5c-0.1,0.3-0.2,0.6-0.3,1c-0.1,0.4-0.3,0.8-0.4,1.2c-0.1,0.4-0.3,0.8-0.4,1.2
		s-0.2,0.7-0.3,1c-0.1,0.3-0.1,0.5-0.1,0.6c0,0-0.1,0-0.2,0s-0.1,0-0.2,0c-0.2,0-0.3-0.1-0.3-0.2c0-0.1,0-0.2,0-0.4
		c0-0.1,0-0.3,0-0.4c0-0.1,0-0.2,0-0.2c-0.1-0.2-0.4-0.4-1-0.5c-0.6-0.1-1.2-0.2-2-0.2S19.5,23,18.7,23s-1.4,0-1.9,0
		c-0.8,0-1.5,0.2-2.3,0.6s-1.4,1.1-2,1.9s-1.1,1.8-1.4,3c-0.4,1.2-0.6,2.5-0.6,4c0,1.3,0.1,2.5,0.4,3.6c0.3,1.1,0.7,2.1,1.3,2.9
		c0.5,0.8,1.2,1.5,2,1.9c0.8,0.5,1.7,0.7,2.7,0.7c0.9,0,1.8-0.2,2.5-0.5c0.7-0.4,1.3-0.8,1.8-1.4s0.8-1.2,1.1-1.9
		c0.3-0.7,0.4-1.5,0.4-2.2c0-0.5-0.1-1.1-0.2-1.6s-0.3-1-0.6-1.3c-0.3-0.4-0.6-0.7-1-0.9c-0.4-0.2-0.9-0.3-1.4-0.3
		c-0.8,0-1.4,0.2-1.8,0.6c-0.3,0.4-0.5,0.8-0.5,1.2c0,0.4,0.1,0.7,0.3,1c0.2,0.3,0.5,0.4,0.9,0.4c0.2,0,0.3,0.1,0.3,0.2
		s0,0.1-0.1,0.2s-0.4,0.3-0.8,0.4c-0.5,0.1-1,0.2-1.7,0.2c-0.8,0-1.4-0.2-1.9-0.6s-0.8-0.9-0.8-1.5c0-0.4,0.2-0.8,0.5-1.1
		c0.4-0.4,0.9-0.7,1.5-1s1.4-0.5,2.3-0.7c0.9-0.2,1.8-0.3,2.9-0.3c0.9,0,1.7,0.1,2.5,0.3c0.8,0.2,1.4,0.4,2,0.8
		c0.6,0.3,1,0.7,1.3,1.2s0.5,1,0.5,1.6c0,0.9-0.3,1.8-0.8,2.8c-0.6,1-1.3,1.9-2.3,2.7c-1,0.8-2.1,1.5-3.5,2.1
		c-1.3,0.5-2.8,0.8-4.3,0.8c-1.6,0-3-0.2-4.2-0.7c-1.4-0.3-2.4-0.9-3.3-1.7c-0.8-0.8-1.5-1.8-1.9-2.9s-0.7-2.3-0.7-3.7
		c0-1,0.2-2,0.5-2.8c0.3-0.9,0.7-1.7,1.2-2.5c0.5-0.8,1-1.5,1.6-2.1s1.2-1.2,1.7-1.6c0.6-0.5,1.1-0.8,1.5-1.1c0.5-0.3,0.8-0.4,1-0.5
		c-0.7,0-1.4,0.1-2.2,0.1c-0.7,0.1-1.5,0.1-2.2,0.2c-0.7,0.1-1.3,0.2-1.8,0.3c-0.6,0.1-1,0.2-1.2,0.4c-0.2,0.1-0.4,0.3-0.5,0.6
		s-0.3,0.5-0.4,0.8c-0.2,0-0.3,0-0.4-0.1c-0.1,0-0.1-0.1-0.2-0.3c0.2-0.2,0.4-0.6,0.6-1.1c0.2-0.6,0.4-1.1,0.6-1.7s0.4-1.1,0.5-1.6
		c0.2-0.5,0.3-0.8,0.4-0.9c0.1,0,0.2-0.1,0.3-0.1c0.1,0,0.2,0,0.2,0.1C7,20.1,7,20.3,7,20.5c0,0.2,0.1,0.3,0.3,0.4
		c0.6,0.1,1.3,0.2,2.2,0.3c0.9,0.1,1.9,0.1,3,0.1h3.8V21.2z"/>
	<path class="st0" d="M45.6,41.8c0.6,0,0.8,0.2,0.8,0.5s-0.2,0.4-0.7,0.4c-0.1,0-0.4,0-0.7,0s-0.7,0-1.1-0.1c-0.4,0-0.8,0-1.2-0.1
		c-0.4,0-0.7,0-1,0c-1.3,0-2.4,0-3.2,0.1c-0.9,0.1-1.6,0.2-2.1,0.3c-0.5,0.1-1,0.2-1.3,0.2c-0.3,0.1-0.6,0.1-0.8,0.1
		c-0.1,0-0.1,0-0.2-0.1C34,43,33.9,43,33.9,42.9s0-0.3,0-0.5s0.1-0.3,0.3-0.3s0.5,0,0.9,0s0.8-0.1,1.2-0.1c0.4-0.1,0.8-0.1,1.1-0.2
		c0.3-0.1,0.6-0.2,0.7-0.4c0.1-0.2,0.1-0.6,0.2-1.2c0.1-0.6,0.1-1.4,0.2-2.4c0.1-1,0.1-2.1,0.2-3.3c0-1.3,0.1-2.6,0.1-4.1
		c0-1.4,0-2.6,0-3.6s0-1.8,0-2.5s-0.1-1.2-0.1-1.5c-0.1-0.4-0.2-0.7-0.3-0.8c-0.9-0.1-1.6-0.2-2.1-0.3c-0.5-0.1-0.8-0.2-0.8-0.4
		c-0.1-0.1-0.1-0.1-0.1-0.2c0-0.2,0.2-0.3,0.7-0.3c0.2,0,0.8,0,1.7,0.1S39.8,21,41,21c0.9,0,1.6,0,2.2,0c0.6,0,1-0.1,1.4-0.1
		s0.6-0.1,0.8-0.1s0.4-0.1,0.6-0.1c0.3,0,0.4,0.1,0.4,0.4c0,0.2-0.1,0.3-0.3,0.4s-0.4,0.2-0.6,0.2c-0.3,0-0.5,0.1-0.8,0.1
		s-0.6,0-0.8,0.1c-0.2,0-0.3,0-0.5,0.1c-0.2,0-0.3,0.1-0.4,0.1c-0.1,0-0.2,0.4-0.3,1.1c0,0.5-0.1,1.4-0.1,2.4
		c-0.1,1-0.1,2.1-0.1,3.2s0,2.2,0,3.2c0.9-0.5,1.9-1.1,2.7-1.8c0.9-0.7,1.8-1.6,2.7-2.6c0.3-0.4,0.7-0.8,1.1-1.2
		c0.4-0.4,0.7-0.8,1-1.3s0.6-0.9,0.8-1.4s0.3-1,0.3-1.4c0-0.1,0-0.3-0.1-0.4c-0.2,0-0.5,0-0.8,0S49.7,22,49.5,22
		c-0.2,0.1-0.4,0.1-0.6,0.1c-0.2,0-0.3,0-0.3,0c-0.3,0-0.5-0.2-0.5-0.5c0-0.2,0.1-0.4,0.2-0.6c0.1-0.2,0.3-0.3,0.5-0.3s0.6,0,1.1,0
		c0.5,0.1,1.3,0.1,2.1,0.1h2.6c0.2,0,0.4,0,0.6,0c0.2,0,0.4,0,0.5,0c0.2,0,0.4,0,0.5,0c0.3,0,0.5,0.1,0.5,0.3c0,0.1,0,0.1,0,0.1
		c-0.3,0.3-0.6,0.7-1.2,1.2c-0.5,0.5-1.1,1-1.7,1.6c-0.6,0.6-1.3,1.2-2.1,1.8c-0.7,0.6-1.4,1.2-2.1,1.8c-0.7,0.6-1.3,1.1-1.9,1.6
		c-0.6,0.5-1.1,0.9-1.4,1.2c0.5-0.1,0.9-0.2,1.2-0.2c1,0,1.9,0.2,2.7,0.6c0.8,0.4,1.4,0.9,2,1.5c0.5,0.6,1,1.3,1.2,2.1
		c0.3,0.8,0.4,1.6,0.4,2.4c0,0.2,0,0.4,0,0.6s-0.1,0.4-0.2,0.5c0.3,0.6,0.6,1.4,1,2.2c0.4,0.8,0.8,1.6,1.2,2.3
		c0.5,0.7,1,1.3,1.6,1.9c0.6,0.5,1.3,0.8,2.1,0.9c0.2,0,0.5-0.1,0.8-0.2s0.6-0.2,0.8-0.3c0.1,0,0.1,0.1,0.2,0.2
		c0.1,0.1,0.1,0.2,0.1,0.3c0,0.3-0.1,0.6-0.4,0.8c-0.3,0.2-0.5,0.3-0.8,0.3c-0.5,0-1.2-0.1-1.9-0.4c-0.7-0.3-1.4-0.7-2.2-1.1
		c-0.7-0.5-1.4-1.1-2.1-1.8c-0.7-0.7-1.2-1.4-1.7-2.2c-0.1-0.1-0.2-0.4-0.4-0.9c-0.2-0.4-0.5-1-0.8-1.6s-0.7-1.2-1.1-1.9
		c-0.4-0.7-0.9-1.3-1.4-1.9s-1.1-1.1-1.7-1.6c-0.6-0.5-1.2-0.7-1.9-0.9c-0.4,0-0.8,0.2-1.2,0.5s-0.8,0.7-1.2,1.1v1.3
		c0,0.7,0,1.4,0,2.1s0,1.4,0.1,1.9c0,0.6,0.1,1.1,0.1,1.5c0.1,0.4,0.1,0.7,0.2,0.8c0.2,0.2,0.5,0.3,1,0.4s0.9,0.1,1.4,0.1h0.3V41.8z
		"/>
</g>
</svg>
